# xmcd CD database file
#
# Track frame offsets:
#	150
#	12728
#	33010
#	51802
#	75008
#	97747
#	105820
#	135332
#	155870
#	178324
#	188701
#	206718
#	231814
#	235748
#	257939
#	279359
#	300932
#
# Disc length: 4329 seconds
#
# Revision: 0
# Processed by: cddbd v1.5.1PL0 Copyright (c) Steve Scherf et al.
# Submitted via: CDex 1.51
#
DISCID=cb10e711
DTITLE=Style Confusion - Inner Sinfonies
DYEAR=2004
DGENRE=Jazz
TTITLE0=Prelude
TTITLE1=Sinfonie
TTITLE2=küßt der mond
TTITLE3=dragonfly
TTITLE4=s.t.y.l.e.
TTITLE5=detail
TTITLE6=wal.fish
TTITLE7=autumn situation
TTITLE8=flieg vogel flieg
TTITLE9=home edition
TTITLE10=nice and easy
TTITLE11=meditation two
TTITLE12=ecoute alors
TTITLE13=seaside
TTITLE14=inna di scene
TTITLE15=pyjama pyrat
TTITLE16=bis dass die zeit
EXTD=YEAR: 2004
EXTT0=
EXTT1=
EXTT2=
EXTT3=
EXTT4=
EXTT5=
EXTT6=
EXTT7=
EXTT8=
EXTT9=
EXTT10=
EXTT11=
EXTT12=
EXTT13=
EXTT14=
EXTT15=
EXTT16=
PLAYORDER=
